<svg height="660" viewBox="-300 -300 600 660" width="600" xmlns="http://www.w3.org/2000/svg" xmlns:xlink="http://www.w3.org/1999/xlink"><radialGradient id="a" cx="221.44487" cy="226.33101" gradientTransform="matrix(1.354228 0 0 .977392 -636.12293 332.79907)" gradientUnits="userSpaceOnUse" r="300"><stop offset="0" stop-color="#fff" stop-opacity=".313726"/><stop offset=".19" stop-color="#fff" stop-opacity=".25098"/><stop offset=".60000002" stop-color="#6b6b6b" stop-opacity=".12549"/><stop offset="1" stop-opacity=".12549"/></radialGradient><path d="m300.32895 657.88725s298.7227-81.38384 298.7227-288.21322c0-206.82937 0-367.3385876 0-367.3385876h-597.4454045v367.3385876c0 206.82938 298.7227045 288.21322 298.7227045 288.21322z" fill="#fafafa" fill-rule="evenodd" stroke="#000" stroke-width="3" transform="translate(-300.55166 -300.83544)"/><path d="m299.09656 656.757.0001-357.71874 298.72259 3.32946.00001-301.16253-297.49031 1.1302524.0001 297.8330676h-299.50978l.7869755 69.50552c0 206.82938 297.4903145 287.08297 297.4903145 287.08297z" fill="#5ab532" fill-rule="evenodd" stroke="#000" stroke-width="3" transform="translate(-298.30623 -297.6791)"/><g><g fill="#e20909" stroke-width="2.20834" transform="matrix(.45613929 0 0 .44954152 114.37369 -211.45163)"><path d="m238.82093 238.24538c-8.8947-91.29629-53.97397-178.577509-124.82093-238.24538h312c-71.44501 60.171551-115.78962 145.88568-124.15773 238.06217m-.0277 63.56886c8.29745 92.29308 52.66116 178.13067 124.18543 238.36897h-312c71.42175-60.15196 115.76074-145.82987 124.14954-237.97213m63.54167-63.84784c92.27021-8.31134 178.08358-52.67131 238.30879-124.18003v312c-60.37093-71.68175-146.45401-116.08321-238.97869-124.23973m-62.59244.0489c-92.31583 8.28365-178.177533 52.65109-238.42887 124.19083v-312c60.332697 71.63635 146.34497 116.02695 238.80288 124.22419" stroke="#000" stroke-width="6.62503" transform="translate(-836.75435 -142.07624)"/><path d="m-599.54407 96.259125h64.669281v63.285458h-64.669281z"/></g><path d="m49.061711 146.23631c16.328887 11.4356 15.899682 37.69077 18.307336 57.60316 7.697508 25.94935 35.175053 37.24592 62.637953 36.75818 16.85555-2.87655 26.22235 17.88059 28.01605 42.86266 26.66779-12.95838 74.51357-51.35443 102.56592-92.17577-6.93066-18.66464-17.74867-42.2096-35.16052-49.39149-13.79814-1.89086-32.73771.9089-39.27817-15.02973-9.26499-18.94489-4.50307-42.523654-18.44255-59.595191-11.46382-16.77814-30.82816-27.508009-51.20867-27.780475-38.685235-.142849-41.518484-20.454393-51.057322-37.9248769-20.959577.445198-41.93603.7157994-62.8529522 2.2443019-1.98972338 41.898383-5.3304068 83.963979-2.59565859 125.886681 17.37997779 20.14957 34.68072979 7.71873 49.06858379 16.54255z" fill="#2b5df2" stroke="#000" stroke-width="2.98551"/><g stroke="#000" stroke-linecap="round" stroke-linejoin="round" stroke-width="1.662411" transform="matrix(-1.1033602 0 0 1.3117953 285.78914 -206.78088)"><g fill="#fcef3c"><path d="m61.778 68.944c8.21-5.997 15.304-8.07 21.694-10.18 4.154-1.37 10.246-4.944 13.192-8.791 3.086-4.031 2.767-11.71 5.45-16.02 1.508-2.422 6.728-6.724 6.728-6.724l-.985-.704s-4.051 3.814-6.28 4.356c-3.426.832-8.47-2.682-11.759-1.413-9.148 3.53-17.63 15.607-21.063 24.792-2.015 5.395-2.36 8.602-6.977 14.684z"/><path d="m114.07 31.154s-5.654 5.803-7.967 8.108c-1.589 1.646-.523 1.886-1.149 3.563-.634 1.698-2.636 3.452-5.024 3.938-2.353.48-4.62-1.915-4.036-4.153.551-2.115 2.463-4.386 4.674-4.924 2.367-.576 2.717 1.317 4.394.263 2.176-1.367 8.192-7.923 8.191-7.963"/><path d="m10.415 82.531c8.584-2.979 19.374-10.01 24.408-17.044 4.315-6.03 5.15-10.385 8.383-14.365 1.86-2.289 3.772-4.343 6.214-5.735 25.815-14.71 53.845-17.968 71.603-17.977 17.47-.009 31.908 6.657 49.464 15.267 17.431 8.55 45.269 27.742 57.47 32.167 12.2 4.426 15.154 7.304 15.088 7.373-.936-4.074.096-7.213-9-15.012-3.1.759-10.323-1.424-14.87-3.19-4.497-1.748-36.716-20.365-51.888-27.235-15.046-6.814-31.742-12.535-48.31-11.894-16.867.653-42.058 3.003-70.625 19.074a23.284 23.284 0 0 0 -6.026 4.86c-1.185.792-2.071 2.015-4.27 1.837-8.719-4.045-19.273 5.88-19.906 14.457-.417 5.655-4.838 12.69-7.735 17.417z"/><path d="m242.778 81.896c-8.35-8.514-6.255-10.082-8.733-14.691m-58.418-23.079s-6.02 3.751-6.59 7.55c-.54 3.61-4.598 7.136-7.932 8.624-4.628 2.066-9.524-.602-14.564-.076-2.213.231-8.96 2.292-8.96 2.292s8.31-9.329 13.53-13.818c3.678-3.165 8.159-5.062 14.98-2.83 1.514.495 3.832.48 5.308-.119 1.046-.423 2.759-2.555 2.759-2.555m-8.148-4.64c-1.118-.983-7.347-5.877-11.654-6.69-6.032-1.14-7.969-5.04-10.89-10.439-1.869-3.453-5.958-16.157-7.145-18.818 5.813 4.913 13.562 5.763 18.9 10.519 3.886 3.461 8.914 8.537 7.754 14.286-.666 3.303-.61 7.182 3.978 10.155m-35.451-10.401c-1.365-.627-8.845-3.536-13.447-2.966-6.445.8-9.299-2.494-13.496-6.976-2.685-2.867-9.704-14.309-11.512-16.6 7.057 3.063 16.84.63 23.377 3.687 4.757 2.225 11.044 5.704 11.13 11.851.05 3.532-.673 8.2 4.698 9.71m-26.105.478s-11.331-10.727-13.745-12.926c-1.66-1.574-.606-1.861-1.307-3.508-.71-1.668-2.788-3.33-5.195-3.71-2.372-.374-4.53 2.12-3.847 4.33.646 2.088 2.658 4.27 4.89 4.71 2.39.469 2.655-1.438 4.378-.46 2.235 1.269 13.96 12.734 13.962 12.773"/><path d="m105.413 26.228c.459-.247-14.126-6.851-19.463-5.634-2.002-.479-1.31-1.177-2.597-2.146-1.304-.98-3.672-1.34-5.719-.553-2.017.776-2.576 3.69-1.05 5.106 1.443 1.336 3.994 2.132 5.931 1.47 2.074-.71 1.545-1.678 3.205-2.328 4.803-1.881 19.9 5.118 19.563 5.415"/><path d="m137.776 29.154c-2.27-1.477-7.707 2.827-10.759 3.657s-9.194 1.468-15.153-.255c-5.78-1.672-8.407-3.535-14.916-2.933 7.46-2.904 17.006-10.581 23.378-10.473 6.371.107 12.02 6.974 17.404 7.926m6.407 3.76c-.37 2.285-2.266 3.513-2.93 4.21-2.084 2.186-7.63.184-13.531-.033-5.355-.197-8.661 3.913-11.924 8.417-4.574 6.315-8.753 12.145-14.133 16.972 11.048-4.584 21.273-1.553 27.736-3.68 5.99-1.97 13.46-5.269 15.115-17.377.334-2.446 1.023-8.165 1.023-8.165"/><path d="m50.566 43.571c-.247-.459-5.109 11.194-3.891 16.53-.48 2.003-1.178 1.31-2.146 2.598-.981 1.303-1.341 3.672-.554 5.718.776 2.017 3.691 2.577 5.106 1.05 1.337-1.442 2.133-3.993 1.47-5.93-.71-2.074-1.678-1.546-2.328-3.206-1.88-4.803 3.376-16.967 3.673-16.63m19.844-8.631c-5.195.55-10.98-1.013-14.19.679-1.98.568-1.257 1.235-2.5 2.26-1.258 1.038-3.608 1.504-5.688.809-2.05-.685-2.739-3.572-1.277-5.054 1.382-1.4 3.894-2.31 5.86-1.734 2.103.616 1.59 2.666 3.305 2.182 4.148-1.17 9.328.04 14.3-.465m74.296-1.203c-.29 1.516-.497 8.806-.687 12.065-.177 2.281-1.064 1.643-1.903 3.223-.85 1.602-.834 4.263.386 6.373 1.203 2.078 4.499 2.186 5.786.264 1.216-1.815 1.646-4.753.582-6.764-1.139-2.153-2.787-1.159-3.111-3.113-.42-2.535.589-11.624.595-12.085"/><path d="m83.006 32.074c-1.497-.123-10.366-.24-14.495 1.871-5.783 2.956-9.326-1.004-14.803-3.78-3.504-1.775-14.013-10.127-16.495-11.66 7.678.463 16.04-5.169 23.227-4.532 5.231.464 8.93 2.431 12.978 7.058 3.251 3.716 3.977 9.299 9.54 8.88m-25.855 11.171c-1.689-.501-7.54-.24-10.357.88-3.133 1.246-6.421 4.63-8.704 7.113-12.452 13.534-28.848 5.594-37.417 8.835 7.004-6.57 18.693-20.417 28.638-19.557 15.025 1.3 25.25 1.466 28.67 1.196"/><path d="m78.055 33.407c-2.335.48-7.765 7.225-9.357 11.373-3.189 8.312-23.833 15.159-29.857 19.276 6.965-7.105 11.643-34.247 30.206-30.077 2.161.486 6.796-.975 8.015-1.997"/></g><path d="m72.226 36.136c-13.274 2.329-18.852 15.044-27.9 23.075m87.505-31.692c-9.89-4.17-13.886 2.652-26.164.845m-60.995 12.672c-16.262 4.255-19.264 1.095-36.677 12.927m67.63-23.763c-12.898 1.3-19.277-6.808-30.841-9.881m55.48 12.265c-11.054 6.676-16.375 18.939-30.796 29.334m-29.808-9.095c-9.95 6.058-11.68 13.498-20.457 21.587m123.837-37.9c-8.7 14.948-21.195 7.755-33.279 19.308m50.443-23.385c-9.55-7.157-6.771-12.002-17.872-22.095m26.788 37.796c-5.611 5.875-13.504 5.291-22.16 9.184m-25.935-38.166c-1.963-1.553-4.253-3.039-6.336-3.566-4.89-1.238-15.165-10.667-15.165-10.667" fill="none"/></g><g stroke-width="2.54364" transform="matrix(1.0286009 0 0 .93911765 196.79068 746.3512)"><path id="b" d="m-320.73694-549.40558c7.1743-73.60063 21.39515-94.92737 39.49757-125.25128l2.7035 3.60454c-23.82123 33.40497-28.77014 62.33801-35.14243 91.76088 13.53978-28.1537 34.09663-53.69083 52.752-47.85411 20.89852 6.5382 16.14199 47.27924 31.0492 58.21644-21.06444-1.49027-22.47232-51.58564-44.45367-51.81241-10.01764 5.92706-29.13449 38.94123-40.39899 72.08693" fill="#fcef3c" stroke="#000" stroke-width="2.54364"/><g id="c" fill="#fcef3c" stroke-width=".673006" transform="matrix(3.2377262 -1.9498609 1.9498609 3.2377262 -9557.5867 -3355.3433)"><path d="m1742.8356 1850.9203-2.2361 2.3828c-1.2874 1.3722-3.9752.5908-4.5173.2183.4448-1.2359 1.8866-2.7442 3.4249-2.6984z" fill="#fcef3c" stroke="#000" stroke-width=".673006"/><path d="m1737.2438 1846.6001-1.7065 2.787c-.9822 1.6046.4819 3.9893.9902 4.4127 1.0739-.7557 2.1482-2.545 1.6943-4.0172z" fill="#fcef3c" stroke="#000" stroke-width=".673006"/><path d="m1741.1681 1853.8937-2.5111 2.6771c-1.4462 1.5411-4.465.6633-5.0747.2416.4997-1.3877 2.1196-3.0823 3.8474-3.0297z" fill="#fcef3c" stroke="#000" stroke-width=".673006"/><path d="m1734.8174 1848.9949-1.9168 3.1299c-1.1035 1.8026.543 4.4823 1.1129 4.957 1.2059-.8486 2.4105-2.859 1.9031-4.5118z" fill="#fcef3c" stroke="#000" stroke-width=".673006"/><path d="m1738.5246 1857.3819-2.7044 2.4814c-1.5578 1.4289-4.5023.3264-5.0779-.1505.6013-1.3469 2.3444-2.9146 4.0634-2.7332z" fill="#fcef3c" stroke="#000" stroke-width=".673006"/><path d="m1732.2005 1852.5031-1.6767 3.2652c-.9655 1.8795.876 4.4283 1.4803 4.8596 1.1393-.9367 2.1901-3.0316 1.5597-4.6421z" fill="#fcef3c" stroke="#000" stroke-width=".673006"/><path d="m1736.3227 1860.4001-2.7547 2.1785c-1.5865 1.2548-4.3196.01-4.8373-.489.6687-1.2434 2.4417-2.618 4.0694-2.3243z" fill="#fcef3c" stroke="#000" stroke-width=".673006"/><path d="m1729.8254 1855.3896-1.3711 3.2333c-.7898 1.8623 1.1465 4.1657 1.7532 4.5348 1.0218-.9736 1.8779-3.0476 1.1645-4.5393z" fill="#fcef3c" stroke="#000" stroke-width=".673006"/><path d="m1733.969 1863.1939-2.48 2.1468c-1.4459 1.2515-3.5671-.6181-4.0489-1.0848.6485-1.1664 1.8332-2.1056 3.3602-1.7661z" fill="#fcef3c" stroke="#000" stroke-width=".673006"/><path d="m1727.7545 1858.3988-1.4136 2.9601c-.8236 1.7257 1.5397 3.2758 2.1183 3.6169.9539-.9341 1.5444-2.3251.8133-3.7079z" fill="#fcef3c" stroke="#000" stroke-width=".673006"/><path d="m1741.6827 1847.0399-.7447 3.1815c-.4289 1.8318-3.1471 2.4986-3.8057 2.4438-.2327-1.2933.1688-3.3262 1.6173-4.0488z" fill="#fcef3c" stroke="#000" stroke-width=".673006"/><path d="m1739.0341 1850.5222-.6145 3.2857c-.3542 1.8914-3.2302 2.4322-3.9397 2.3362-.3244-1.3656.095-3.4582 1.5004-4.1423z" fill="#fcef3c" stroke="#000" stroke-width=".673006"/><path d="m1736.1192 1853.6124-.6141 3.2854c-.354 1.8928-3.2302 2.4326-3.9396 2.3365-.3246-1.3655.095-3.4582 1.5003-4.1423z" fill="#fcef3c" stroke="#000" stroke-width=".673006"/><path d="m1733.6568 1856.4672.052 3.0806c.037 1.9978-3.7314 3.091-4.0172 2.763-.3907-1.3496-.078-3.4593 1.3023-4.2093z" fill="#fcef3c" stroke="#000" stroke-width=".673006"/><path d="m1730.7729 1859.4833.046 2.9183c.034 1.7276-2.5702 2.9071-2.941 2.7358-.9087-.4192-.5846-2.8991.52-3.7437z" fill="#fcef3c" stroke="#000" stroke-width=".673006"/></g><g fill="#fcef3c" stroke="#000" stroke-width=".673006" transform="matrix(3.7795276 0 0 3.7795276 -6815.6509 -7717.097)"><path d="m1715.4299 1900.775-.1193 6.6756 3.9537-.08-.1589-6.7351"/><path d="m1716.5424 1901.2862.1203 6.137"/><path d="m1717.6749 1901.2862.1802 6.1129"/><path d="m1716.9994 1857.7415c-.8624 11.2979-1.021 26.3711-.5166 38.9408h.9537l.1589-16.8479c-.061-1.8814 1.5708-4.9275 3.1471-7.0373 1.9578-2.6205 3.7966-5.136 3.3298-11.837-1.1461 6.1013-4.7633 9.5961-6.755 15.4173-.014-4.711-.3791-6.9301.596-18.8743"/><g fill-rule="evenodd"><path d="m1714.6273 1896.1774h4.9873c.3386 0 .6111.2725.6111.6111 0 .3385-.2725.6111-.6111.6111h-4.9873c-.3385 0-.6111-.2726-.6111-.6111 0-.3386.2726-.6111.6111-.6111z"/><path d="m1715.2384 1900.1062h3.7652c.3269 0 .59.2631.59.59s-.2631.59-.59.59h-3.7652c-.3268 0-.59-.2631-.59-.59s.2632-.59.59-.59z"/><path d="m1714.831 1897.487h4.3408c.1835 0 .3048.01.3325.023.2463.033.4433.2198.4935.4628.011.054.015.1096.011.166-.021.3112-.2801.5559-.5982.5559 0 0-.0002 0-.0006 0-.043 0-3.584 0-4.3397 0-.1837 0-.3052-.01-.333-.023-.2462-.033-.4432-.2198-.4935-.4628-.011-.054-.015-.1096-.011-.1659.021-.3113.2802-.556.5982-.556z"/><path d="m1715.0347 1898.7966h4.053c.1425 0 .2508.017.3063.047.2156.066.3766.2571.4017.4913.01.052 0 .1038 0 .1551-.043.284-.2877.5009-.5853.5009 0 0-.0001 0-.0003 0-.021 0-3.6746 0-4.0525 0-.1426 0-.251-.017-.3065-.047-.2156-.066-.3766-.2572-.4018-.4914-.01-.052 0-.1038 0-.155.043-.284.2878-.5009.5853-.5009"/></g></g><g stroke-width="2.54364"><use height="100%" transform="matrix(.87431376 .48536115 -.48536115 .87431376 -324.153165 90.139141)" width="100%" xlink:href="#c"/><use height="100%" transform="matrix(.8092727 -.58743314 .58743314 .8092727 297.997792 -311.054186)" width="100%" xlink:href="#c"/><use height="100%" transform="matrix(-1 0 0 1 -649.89946 -1.787588)" width="100%" xlink:href="#b"/></g></g></g><path d="m300.32895 657.88725s298.7227-81.38384 298.7227-288.21322c0-206.82937 0-367.3385876 0-367.3385876h-597.4454045v367.3385876c0 206.82938 298.7227045 288.21322 298.7227045 288.21322z" fill="url(#a)" fill-rule="evenodd" stroke="#000" stroke-width="3" transform="translate(-300.32896 -299.38723)"/></svg>