<?xml version="1.0" encoding="UTF-8" standalone="no"?>
<svg
   xmlns:dc="http://purl.org/dc/elements/1.1/"
   xmlns:cc="http://web.resource.org/cc/"
   xmlns:rdf="http://www.w3.org/1999/02/22-rdf-syntax-ns#"
   xmlns:svg="http://www.w3.org/2000/svg"
   xmlns="http://www.w3.org/2000/svg"
   xmlns:xlink="http://www.w3.org/1999/xlink"
   xmlns:sodipodi="http://sodipodi.sourceforge.net/DTD/sodipodi-0.dtd"
   xmlns:inkscape="http://www.inkscape.org/namespaces/inkscape"
   height="660.5"
   width="600"
   version="1.0"
   id="svg2"
   sodipodi:version="0.32"
   inkscape:version="0.45.1"
   sodipodi:docname="Blason ville fr Boutigny-sur-Essonne  (Essonne).svg"
   sodipodi:docbase="C:\Users\Jany\Documents\aaaOuiqui\Blasons\Blasons autres svg"
   inkscape:export-filename="/Users/olivier/Desktop/Blason Rouge/Blason_Vide_3D.png"
   inkscape:export-xdpi="144"
   inkscape:export-ydpi="144"
   inkscape:output_extension="org.inkscape.output.svg.inkscape">
  <metadata
     id="metadata49">
    <rdf:RDF>
      <cc:Work
         rdf:about="">
        <dc:format>image/svg+xml</dc:format>
        <dc:type
           rdf:resource="http://purl.org/dc/dcmitype/StillImage" />
        <dc:title>Gabarit d'un blason en pointe pour le projet Blasons de Wikipédia</dc:title>
        <dc:date>03-AUG-2006</dc:date>
        <dc:creator>
          <cc:Agent>
            <dc:title>Jérôme BLUM (wagner51)</dc:title>
          </cc:Agent>
        </dc:creator>
        <cc:license
           rdf:resource="http://web.resource.org/cc/PublicDomain" />
        <dc:language>fr</dc:language>
        <dc:subject>
          <rdf:Bag>
            <rdf:li>gabarit modèle blason projet wikipédia</rdf:li>
          </rdf:Bag>
        </dc:subject>
      </cc:Work>
      <cc:License
         rdf:about="http://web.resource.org/cc/PublicDomain">
        <cc:permits
           rdf:resource="http://web.resource.org/cc/Reproduction" />
        <cc:permits
           rdf:resource="http://web.resource.org/cc/Distribution" />
        <cc:permits
           rdf:resource="http://web.resource.org/cc/DerivativeWorks" />
      </cc:License>
    </rdf:RDF>
  </metadata>
  <sodipodi:namedview
     inkscape:window-height="814"
     inkscape:window-width="1152"
     inkscape:pageshadow="2"
     inkscape:pageopacity="0.0"
     guidetolerance="10.0"
     gridtolerance="10.0"
     objecttolerance="10.0"
     borderopacity="1.0"
     bordercolor="#666666"
     pagecolor="#ffffff"
     id="base"
     showgrid="false"
     height="660px"
     inkscape:zoom="0.55390032"
     inkscape:cx="334.32077"
     inkscape:cy="340.98453"
     inkscape:window-x="-8"
     inkscape:window-y="-8"
     inkscape:current-layer="layer3"
     showguides="true"
     inkscape:guide-bbox="true" />
  <desc
     id="desc4">Flag of Canton of Valais (Wallis)</desc>
  <defs
     id="defs6">
    <linearGradient
       id="linearGradient2893">
      <stop
         style="stop-color:white;stop-opacity:0.3137255;"
         offset="0"
         id="stop2895" />
      <stop
         id="stop2897"
         offset="0.19"
         style="stop-color:white;stop-opacity:0.25098041;" />
      <stop
         style="stop-color:#6b6b6b;stop-opacity:0.1254902;"
         offset="0.60000002"
         id="stop2901" />
      <stop
         style="stop-color:black;stop-opacity:0.1254902;"
         offset="1"
         id="stop2899" />
    </linearGradient>
    <radialGradient
       inkscape:collect="always"
       xlink:href="#linearGradient2893"
       id="radialGradient3163"
       gradientUnits="userSpaceOnUse"
       gradientTransform="matrix(1.353218,0,0,1.348928,-77.62936,-85.74693)"
       cx="221.44487"
       cy="226.33101"
       fx="221.44487"
       fy="226.33101"
       r="300" />
  </defs>
  <g
     inkscape:groupmode="layer"
     id="layer3"
     inkscape:label="Fond écu"
     style="display:inline"
     transform="translate(2.3841858e-7,1.2525328e-6)">
    <path
       id="path2855"
       style="fill:#ffffff;fill-opacity:1;fill-rule:evenodd;stroke:none;stroke-width:1px;stroke-linecap:butt;stroke-linejoin:miter;stroke-opacity:1"
       d="M 299.99999,660.5 C 299.99999,660.5 598.5,548.17969 598.5,262.72817 C 598.5,-22.723354 598.5,4.176476 598.5,4.176476 L 1.4999902,4.176476 L 1.4999902,262.72817 C 1.4999902,548.17969 299.99999,660.5 299.99999,660.5 z "
       sodipodi:nodetypes="cccccc" />
    <path
       style="fill:#fcef3c;fill-opacity:1;fill-rule:evenodd;stroke:#000000;stroke-width:3;stroke-linecap:butt;stroke-linejoin:miter;stroke-miterlimit:4;stroke-dasharray:none;stroke-opacity:1;display:inline"
       d="M 1.6869379,2.1564486 L 1.6869379,164.95095 C 1.6869379,164.95095 51.405781,141.92405 101.12462,141.92405 C 150.84346,141.92405 150.84346,164.95095 200.5623,164.95095 C 250.28114,164.95095 250.28115,141.92405 300,141.92405 C 349.71884,141.92405 349.71884,164.95095 399.43768,164.95095 C 449.15652,164.95095 449.15653,141.92405 498.87537,141.92405 C 548.59421,141.92405 598.31305,164.95095 598.31305,164.95095 C 598.31305,160.92715 598.31303,2.1564486 598.31303,2.1564486 L 1.6869379,2.1564486 z "
       id="path3264"
       sodipodi:nodetypes="cczzzzzccc" />
    <path
       id="path4892"
       style="fill:#5ab532;fill-opacity:1;fill-rule:evenodd;stroke:#000000;stroke-width:3;stroke-linecap:butt;stroke-linejoin:miter;stroke-miterlimit:4;stroke-opacity:1;display:inline"
       d="M 598.31305,192.95095 C 598.31305,192.95095 598.31305,164.95095 598.31305,164.95095 C 598.31305,164.95095 548.59421,141.92405 498.87537,141.92405 C 449.15653,141.92405 449.15652,164.95095 399.43768,164.95095 C 349.71884,164.95095 349.71884,141.92405 300,141.92405 C 250.28115,141.92405 250.28114,164.95095 200.5623,164.95095 C 150.84346,164.95095 150.84346,141.92405 101.12462,141.92405 C 51.405781,141.92405 1.6869379,164.95095 1.6869379,164.95095 C 1.6869379,164.95095 1.6869379,192.95095 1.6869379,192.95095 C 1.6869379,192.95095 51.405781,169.92405 101.12462,169.92405 C 150.84346,169.92405 150.84346,192.95095 200.5623,192.95095 C 250.28114,192.95095 250.28115,169.92405 300,169.92405 C 349.71884,169.92405 349.71884,192.95095 399.43768,192.95095 C 449.15652,192.95095 449.15653,169.92405 498.87537,169.92405 C 548.59421,169.92405 598.31305,192.95095 598.31305,192.95095 z "
       sodipodi:nodetypes="ccsssssccsssssc" />
    <path
       style="fill:#000000;fill-opacity:1;fill-rule:evenodd;stroke:#ffffff;stroke-width:3;stroke-linecap:butt;stroke-linejoin:miter;stroke-opacity:1;display:inline;stroke-miterlimit:4;stroke-dasharray:none"
       d="M 251.3125 210.65625 C 250.86335 210.65625 250.5 211.17261 250.5 211.78125 L 250.5 273.8125 C 250.5 274.18353 250.63708 274.48878 250.84375 274.6875 L 298.125 274.6875 C 298.30486 274.6875 298.45957 274.77295 298.59375 274.90625 L 300.3125 274.90625 C 300.44668 274.77295 300.60139 274.6875 300.78125 274.6875 L 348.0625 274.6875 C 348.2634 274.48792 348.40625 274.1774 348.40625 273.8125 L 348.40625 211.78125 C 348.40625 211.17262 348.0429 210.65626 347.59375 210.65625 L 251.3125 210.65625 z M 348.0625 274.6875 C 347.92832 274.8208 347.77361 274.90625 347.59375 274.90625 L 300.3125 274.90625 C 300.1116 275.10583 299.96874 275.41633 299.96875 275.78125 L 299.96875 337.8125 C 299.96875 338.17387 300.11491 338.48751 300.3125 338.6875 L 347.59375 338.6875 C 347.78851 338.6875 347.95426 338.78351 348.09375 338.9375 L 349.75 338.9375 C 349.88949 338.78351 350.05524 338.6875 350.25 338.6875 L 397.5625 338.6875 C 397.75679 338.48716 397.875 338.17033 397.875 337.8125 L 397.875 275.78125 C 397.875 275.17261 397.51167 274.68751 397.0625 274.6875 L 348.0625 274.6875 z M 397.5625 338.6875 C 397.42633 338.82792 397.24758 338.9375 397.0625 338.9375 L 349.75 338.9375 C 349.56781 339.13863 349.4375 339.43654 349.4375 339.78125 L 349.4375 401.84375 C 349.4375 402.20866 349.58035 402.51917 349.78125 402.71875 L 397.0625 402.71875 C 397.24758 402.71875 397.42633 402.79708 397.5625 402.9375 L 399.25 402.9375 C 399.38519 402.80066 399.53629 402.71875 399.71875 402.71875 L 447 402.71875 C 447.20668 402.52003 447.34374 402.21478 447.34375 401.84375 L 447.34375 339.78125 C 447.34375 339.17261 446.9804 338.68751 446.53125 338.6875 L 397.5625 338.6875 z M 447 402.71875 C 446.86765 402.84601 446.70659 402.9375 446.53125 402.9375 L 399.25 402.9375 C 399.05241 403.13749 398.90625 403.45112 398.90625 403.8125 L 398.90625 465.84375 C 398.90625 466.20512 399.05241 466.51875 399.25 466.71875 L 446.53125 466.71875 C 446.70659 466.71874 446.86765 466.81025 447 466.9375 L 448.71875 466.9375 C 448.85293 466.8042 449.00764 466.71875 449.1875 466.71875 L 496.5 466.71875 C 496.69759 466.51876 496.8125 466.20512 496.8125 465.84375 L 496.8125 403.8125 C 496.8125 403.20386 496.44914 402.71874 496 402.71875 L 447 402.71875 z M 496.5 466.71875 C 496.36481 466.85559 496.18247 466.9375 496 466.9375 L 448.71875 466.9375 C 448.51785 467.13708 448.375 467.44759 448.375 467.8125 L 448.375 529.875 C 448.375 530.21972 448.5053 530.51762 448.6875 530.71875 L 489.09375 530.71875 C 506.97217 511.69173 524.02549 490.40353 539.125 466.71875 L 496.5 466.71875 z M 448.6875 530.71875 L 447.03125 530.71875 C 446.89362 530.86483 446.72041 530.96875 446.53125 530.96875 L 399.25 530.96875 C 399.05241 531.16874 398.90625 531.45114 398.90625 531.8125 L 398.90625 593.875 C 398.90625 594.23993 399.0491 594.55041 399.25 594.75 L 416.21875 594.75 C 440.12458 577.28362 465.21092 556.11807 488.875 530.96875 L 449.1875 530.96875 C 448.99273 530.96876 448.82699 530.87274 448.6875 530.71875 z M 399.25 594.75 L 397.53125 594.75 C 397.3989 594.87726 397.23784 594.96875 397.0625 594.96875 L 349.59375 594.96875 C 349.39616 595.16875 349.28126 595.48236 349.28125 595.84375 L 349.28125 637.0625 C 368.3797 626.70547 391.51005 612.76869 415.90625 594.96875 L 399.71875 594.96875 C 399.53889 594.96874 399.38418 594.8833 399.25 594.75 z M 349.59375 594.96875 C 349.72894 594.83191 349.88004 594.75 350.0625 594.75 L 397.53125 594.75 C 397.73793 594.55127 397.87499 594.24607 397.875 593.875 L 397.875 531.8125 C 397.875 531.45467 397.75679 531.16909 397.5625 530.96875 L 350.25 530.96875 C 350.05523 530.96876 349.88949 530.87274 349.75 530.71875 L 348.09375 530.71875 C 347.95426 530.87274 347.78851 530.96875 347.59375 530.96875 L 300.3125 530.96875 C 300.11491 531.16874 299.96875 531.45114 299.96875 531.8125 L 299.96875 593.875 C 299.96875 594.23993 300.1116 594.55041 300.3125 594.75 L 347.59375 594.75 C 347.77621 594.74999 347.92731 594.83191 348.0625 594.96875 L 349.59375 594.96875 z M 348.0625 594.96875 L 300.78125 594.96875 C 300.60139 594.96874 300.44668 594.8833 300.3125 594.75 L 298.59375 594.75 C 298.45957 594.8833 298.30486 594.96875 298.125 594.96875 L 250.8125 594.96875 C 250.61821 595.1691 250.5 595.4859 250.5 595.84375 L 250.5 636.96875 C 272.56061 648.94313 289.24158 656.11551 296.28125 659 L 303.71875 659 C 310.64486 656.16204 326.87299 649.1614 348.40625 637.53125 L 348.40625 595.84375 C 348.40625 595.48236 348.26009 595.16874 348.0625 594.96875 z M 250.8125 594.96875 C 250.94867 594.82833 251.12742 594.75 251.3125 594.75 L 298.59375 594.75 C 298.79465 594.55041 298.93749 594.23995 298.9375 593.875 L 298.9375 531.8125 C 298.9375 531.45113 298.79134 531.16874 298.59375 530.96875 L 251.3125 530.96875 C 251.12334 530.96876 250.95013 530.86483 250.8125 530.71875 L 249.15625 530.71875 C 249.01676 530.87274 248.85101 530.96875 248.65625 530.96875 L 201.34375 530.96875 C 201.14946 531.16909 201.03125 531.45468 201.03125 531.8125 L 201.03125 593.875 C 201.03125 594.24605 201.16833 594.55127 201.375 594.75 L 248.8125 594.75 C 248.99496 594.74999 249.17731 594.83191 249.3125 594.96875 L 250.8125 594.96875 z M 249.3125 594.96875 L 201.84375 594.96875 C 201.6684 594.96874 201.50735 594.87726 201.375 594.75 L 199.65625 594.75 C 199.52207 594.8833 199.36736 594.96875 199.1875 594.96875 L 184.09375 594.96875 C 208.02878 612.43222 230.73852 626.17464 249.625 636.46875 L 249.625 595.84375 C 249.625 595.48236 249.51009 595.16874 249.3125 594.96875 z M 199.65625 594.75 C 199.85715 594.55041 200 594.23995 200 593.875 L 200 531.8125 C 200 531.45113 199.85384 531.16874 199.65625 530.96875 L 152.375 530.96875 C 152.18024 530.96876 151.98324 530.87274 151.84375 530.71875 L 150.21875 530.71875 C 150.07926 530.87274 149.91352 530.96875 149.71875 530.96875 L 111.125 530.96875 C 134.78908 556.11807 159.87542 577.28362 183.78125 594.75 L 199.65625 594.75 z M 150.21875 530.71875 C 150.40095 530.51762 150.53125 530.21973 150.53125 529.875 L 150.53125 467.8125 C 150.53125 467.44759 150.3884 467.13707 150.1875 466.9375 L 102.90625 466.9375 C 102.72378 466.93749 102.54144 466.85559 102.40625 466.71875 L 60.875 466.71875 C 75.974512 490.40353 93.027826 511.69173 110.90625 530.71875 L 150.21875 530.71875 z M 102.40625 466.71875 L 149.71875 466.71875 C 149.89861 466.71874 150.05332 466.8042 150.1875 466.9375 L 151.875 466.9375 C 152.00918 466.8042 152.19515 466.71875 152.375 466.71875 L 199.65625 466.71875 C 199.85384 466.51876 200 466.20512 200 465.84375 L 200 403.8125 C 200 403.45112 199.85384 403.13749 199.65625 402.9375 L 152.375 402.9375 C 152.19514 402.93751 152.00918 402.85205 151.875 402.71875 L 102.90625 402.71875 C 102.4571 402.71875 102.09375 403.20387 102.09375 403.8125 L 102.09375 465.84375 C 102.09375 466.20512 102.20866 466.51875 102.40625 466.71875 z M 151.875 402.71875 L 199.1875 402.71875 C 199.36997 402.71875 199.52106 402.80067 199.65625 402.9375 L 201.34375 402.9375 C 201.47992 402.79708 201.65867 402.71875 201.84375 402.71875 L 249.125 402.71875 C 249.3259 402.51917 249.46875 402.20866 249.46875 401.84375 L 249.46875 339.78125 C 249.46875 339.43653 249.33844 339.13863 249.15625 338.9375 L 201.84375 338.9375 C 201.65867 338.9375 201.47992 338.82792 201.34375 338.6875 L 152.375 338.6875 C 151.92585 338.6875 151.5625 339.17261 151.5625 339.78125 L 151.5625 401.84375 C 151.5625 402.20866 151.6741 402.51917 151.875 402.71875 z M 201.34375 338.6875 L 248.65625 338.6875 C 248.85101 338.6875 249.01676 338.78351 249.15625 338.9375 L 250.8125 338.9375 C 250.95013 338.79142 251.12334 338.6875 251.3125 338.6875 L 298.59375 338.6875 C 298.79134 338.48751 298.93749 338.17387 298.9375 337.8125 L 298.9375 275.78125 C 298.9375 275.41634 298.79465 275.10583 298.59375 274.90625 L 251.3125 274.90625 C 251.13716 274.90625 250.9761 274.81476 250.84375 274.6875 L 201.84375 274.6875 C 201.3946 274.6875 201.03126 275.17261 201.03125 275.78125 L 201.03125 337.8125 C 201.03125 338.17033 201.14946 338.48716 201.34375 338.6875 z M 298.59375 338.6875 C 298.45856 338.82434 298.30747 338.9375 298.125 338.9375 L 250.8125 338.9375 C 250.62334 339.13828 250.5 339.42894 250.5 339.78125 L 250.5 401.84375 C 250.5 402.21479 250.63708 402.52003 250.84375 402.71875 L 298.125 402.71875 C 298.30747 402.71875 298.45855 402.80067 298.59375 402.9375 L 300.3125 402.9375 C 300.44769 402.80066 300.59878 402.71875 300.78125 402.71875 L 348.0625 402.71875 C 348.2634 402.51917 348.40625 402.20866 348.40625 401.84375 L 348.40625 339.78125 C 348.40625 339.43653 348.27594 339.13863 348.09375 338.9375 L 300.78125 338.9375 C 300.59878 338.9375 300.44769 338.82434 300.3125 338.6875 L 298.59375 338.6875 z M 348.0625 402.71875 C 347.92832 402.85205 347.77361 402.9375 347.59375 402.9375 L 300.3125 402.9375 C 300.11491 403.13749 299.96875 403.45112 299.96875 403.8125 L 299.96875 465.84375 C 299.96875 466.20512 300.11491 466.51875 300.3125 466.71875 L 347.59375 466.71875 C 347.77361 466.71874 347.92832 466.8042 348.0625 466.9375 L 349.78125 466.9375 C 349.91543 466.8042 350.07014 466.71875 350.25 466.71875 L 397.5625 466.71875 C 397.75679 466.5184 397.875 466.20158 397.875 465.84375 L 397.875 403.8125 C 397.875 403.45466 397.75679 403.13784 397.5625 402.9375 L 350.25 402.9375 C 350.07014 402.93751 349.91543 402.85205 349.78125 402.71875 L 348.0625 402.71875 z M 397.5625 466.71875 C 397.42633 466.85917 397.24758 466.9375 397.0625 466.9375 L 349.78125 466.9375 C 349.58035 467.13708 349.4375 467.44759 349.4375 467.8125 L 349.4375 529.875 C 349.4375 530.21972 349.5678 530.51762 349.75 530.71875 L 397.0625 530.71875 C 397.24758 530.71874 397.42633 530.82834 397.5625 530.96875 L 399.25 530.96875 C 399.38519 530.83192 399.53628 530.71875 399.71875 530.71875 L 447.03125 530.71875 C 447.22041 530.51797 447.34375 530.22732 447.34375 529.875 L 447.34375 467.8125 C 447.34375 467.44146 447.20667 467.13621 447 466.9375 L 399.71875 466.9375 C 399.53629 466.93749 399.38519 466.85559 399.25 466.71875 L 397.5625 466.71875 z M 348.0625 466.9375 L 300.78125 466.9375 C 300.59879 466.93749 300.44769 466.85559 300.3125 466.71875 L 298.59375 466.71875 C 298.45856 466.85559 298.30747 466.9375 298.125 466.9375 L 250.84375 466.9375 C 250.63708 467.13622 250.5 467.44147 250.5 467.8125 L 250.5 529.875 C 250.5 530.22731 250.62334 530.51798 250.8125 530.71875 L 298.125 530.71875 C 298.30747 530.71874 298.45856 530.83192 298.59375 530.96875 L 300.3125 530.96875 C 300.44769 530.83192 300.59878 530.71875 300.78125 530.71875 L 348.09375 530.71875 C 348.27595 530.51762 348.40624 530.21973 348.40625 529.875 L 348.40625 467.8125 C 348.40625 467.44759 348.2634 467.13707 348.0625 466.9375 z M 250.84375 466.9375 C 250.9761 466.81025 251.13716 466.71875 251.3125 466.71875 L 298.59375 466.71875 C 298.79134 466.51876 298.9375 466.20512 298.9375 465.84375 L 298.9375 403.8125 C 298.9375 403.45112 298.79134 403.13749 298.59375 402.9375 L 251.3125 402.9375 C 251.13717 402.93751 250.9761 402.846 250.84375 402.71875 L 249.125 402.71875 C 248.99082 402.85205 248.83611 402.9375 248.65625 402.9375 L 201.34375 402.9375 C 201.14946 403.13784 201.03125 403.45467 201.03125 403.8125 L 201.03125 465.84375 C 201.03125 466.20158 201.14946 466.5184 201.34375 466.71875 L 248.65625 466.71875 C 248.83611 466.71874 248.99082 466.8042 249.125 466.9375 L 250.84375 466.9375 z M 249.125 466.9375 L 201.84375 466.9375 C 201.65867 466.93749 201.47992 466.85917 201.34375 466.71875 L 199.65625 466.71875 C 199.52106 466.85559 199.36996 466.9375 199.1875 466.9375 L 151.875 466.9375 C 151.6741 467.13708 151.5625 467.44759 151.5625 467.8125 L 151.5625 529.875 C 151.5625 530.21972 151.66156 530.51762 151.84375 530.71875 L 199.1875 530.71875 C 199.36997 530.71874 199.52106 530.83192 199.65625 530.96875 L 201.34375 530.96875 C 201.47992 530.82834 201.65867 530.71875 201.84375 530.71875 L 249.15625 530.71875 C 249.33844 530.51762 249.46875 530.21973 249.46875 529.875 L 249.46875 467.8125 C 249.46875 467.44759 249.3259 467.13707 249.125 466.9375 z "
       id="path76424"
       transform="translate(-2.3841858e-7,-1.2525328e-6)" />
    <g
       id="g81399"
       transform="translate(6.3346943,0)">
      <g
         style="fill:#5ab532;fill-opacity:1;stroke:#000000;stroke-width:5.71801758;stroke-miterlimit:4;stroke-dasharray:none;stroke-opacity:1"
         id="g79407"
         transform="matrix(0.3595251,0.3821087,-0.3821087,0.3595251,118.49303,-12.766357)">
        <g
           style="fill:#5ab532;fill-opacity:1;stroke:#000000;stroke-width:8.52807903;stroke-miterlimit:4;stroke-dasharray:none;stroke-opacity:1"
           id="g79409"
           transform="matrix(0.670493,0,0,0.670493,125.752,-133.7464)">
          <path
             id="path79411"
             style="color:#000000;fill:#5ab532;fill-opacity:1;fill-rule:nonzero;stroke:#000000;stroke-width:8.52807236;stroke-linecap:butt;stroke-linejoin:miter;marker:none;marker-start:none;marker-mid:none;marker-end:none;stroke-miterlimit:4;stroke-dasharray:none;stroke-dashoffset:0;stroke-opacity:1;visibility:visible;display:inline;overflow:visible"
             transform="matrix(0.784508,-0.62012,0.62012,0.784508,-366.9358,157.1982)"
             d="M 69.082687,350.17303 C 69.086492,390.5904 51.382381,423.35889 29.541939,423.35889 C 7.7014958,423.35889 -10.002615,390.5904 -9.9988098,350.17303 C -10.002615,309.75566 7.7014958,276.98717 29.541939,276.98717 C 51.382381,276.98717 69.086492,309.75566 69.082687,350.17303 z " />
          <path
             id="path79413"
             style="fill:#5ab532;fill-opacity:1;fill-rule:evenodd;stroke:#000000;stroke-width:8.52807903;stroke-linecap:butt;stroke-linejoin:miter;stroke-miterlimit:4;stroke-dasharray:none;stroke-opacity:1"
             d="M -98.44245,243.14474 L -98.7237,243.45724 C -95.152431,249.61338 -99.430813,262.90177 -109.31745,275.01974 C -120.31949,288.50485 -134.14868,295.47694 -140.19245,290.61349 C -81.273347,356.11209 -23.49007,421.88921 30.6513,488.58224 C 53.76545,512.14696 67.14433,517.15111 76.99505,515.39474 C 109.44643,507.37781 109.44885,474.18714 99.2763,461.30099 C 35.25083,397.78845 28.8805,417.86261 -98.44245,243.14474 z " />
          <path
             id="path79415"
             style="color:#000000;fill:#5ab532;fill-opacity:1;fill-rule:nonzero;stroke:#000000;stroke-width:8.52807903;stroke-linecap:butt;stroke-linejoin:miter;marker:none;marker-start:none;marker-mid:none;marker-end:none;stroke-miterlimit:4;stroke-dasharray:none;stroke-dashoffset:0;stroke-opacity:1;visibility:visible;display:inline;overflow:visible"
             d="M -39.0987,203.89474 C -45.10664,203.92182 -50.44294,205.54223 -54.7237,208.92599 C -58.64707,212.02725 -61.30789,216.35619 -62.81745,221.55099 C -69.69416,232.23406 -78.84914,244.73102 -88.94245,257.73849 C -88.25157,257.96415 -87.640148,258.2746 -87.06745,258.70724 C -80.958673,263.32207 -84.337486,278.25346 -94.62995,292.01974 C -104.92242,305.78601 -118.23992,313.19707 -124.3487,308.58224 C -125.639,307.60749 -126.50688,306.18088 -126.9737,304.39474 C -151.60033,333.50089 -172.51593,356.6046 -171.9737,356.17599 C -154.85064,342.64095 -120.64631,357.39474 -95.5987,389.08224 C -77.9871,411.36251 -69.58659,436.1087 -72.0987,453.55099 C -43.56441,401.54975 -12.13094,355.8344 33.5263,325.42599 C 34.20462,325.02814 36.15917,323.6727 36.49505,323.45724 L 36.43255,323.39474 C 53.03482,309.59694 46.52573,273.26112 21.68255,241.83224 C 2.89684,218.06662 -21.07489,203.81349 -39.0987,203.89474 z " />
          <path
             id="path79417"
             style="fill:#5ab532;fill-opacity:1;fill-rule:evenodd;stroke:#000000;stroke-width:8.52807903;stroke-linecap:butt;stroke-linejoin:miter;stroke-miterlimit:4;stroke-dasharray:none;stroke-opacity:1"
             d="M -98.1612,244.76974 C -95.767291,251.35884 -100.07324,263.68918 -109.31745,275.01974 C -120.31949,288.50485 -134.14868,295.47694 -140.19245,290.61349 C -135.91436,295.37282 -131.64711,300.13311 -127.37995,304.89474 C -127.23778,304.72682 -126.61304,305.49245 -126.37995,305.98849 C -125.47457,306.9991 -124.56593,308.00897 -123.6612,309.01974 C -117.28725,312.65079 -104.55575,305.29559 -94.62995,292.01974 C -85.999923,280.47699 -82.240138,268.11989 -84.8487,261.70724 C -85.590622,260.70219 -86.285286,259.75804 -87.0362,258.73849 C -87.048013,258.72943 -88.55212,257.21997 -88.3487,256.95724 C -91.38376,252.83117 -94.912448,249.06194 -98.1612,244.76974 z " />
          <path
             id="path79419"
             style="color:#000000;fill:#5ab532;fill-opacity:1;fill-rule:nonzero;stroke:#000000;stroke-width:8.52808094;stroke-linecap:butt;stroke-linejoin:miter;marker:none;marker-start:none;marker-mid:none;marker-end:none;stroke-miterlimit:4;stroke-dasharray:none;stroke-dashoffset:0;stroke-opacity:1;visibility:visible;display:inline;overflow:visible"
             transform="matrix(0.774836,0.632162,-0.632162,0.774836,-34.1139,77.13798)"
             d="M 66.810229,200.87263 C 66.810229,218.31773 60.502265,232.45978 52.720996,232.45978 C 44.939728,232.45978 38.631764,218.31773 38.631764,200.87263 C 38.631764,183.42753 44.939728,169.28548 52.720997,169.28548 C 60.502265,169.28548 66.810229,183.42753 66.810229,200.87263 L 66.810229,200.87263 z " />
          <path
             id="path79421"
             style="fill:#5ab532;fill-opacity:1;fill-rule:evenodd;stroke:#000000;stroke-width:8.52807903;stroke-linecap:butt;stroke-linejoin:miter;stroke-miterlimit:4;stroke-dasharray:none;stroke-opacity:1"
             d="M -106.81416,358.0702 C -62.38074,325.9104 -37.7574,283.84556 -18.50741,239.09404" />
          <path
             id="path79423"
             style="fill:#5ab532;fill-opacity:1;fill-rule:evenodd;stroke:#000000;stroke-width:8.52807903;stroke-linecap:butt;stroke-linejoin:miter;stroke-miterlimit:4;stroke-dasharray:none;stroke-opacity:1"
             d="M -37.01481,395.085 C 49.632,497.1589 54.64948,507.05649 83.01891,507.18698" />
        </g>
      </g>
      <g
         style="fill:#5ab532;fill-opacity:1;stroke:#000000;stroke-width:5.71801758;stroke-miterlimit:4;stroke-dasharray:none;stroke-opacity:1"
         id="g79443"
         transform="matrix(0.3595251,0.3821087,-0.3821087,0.3595251,483.17957,-12.766357)">
        <g
           style="fill:#5ab532;fill-opacity:1;stroke:#000000;stroke-width:8.52807903;stroke-miterlimit:4;stroke-dasharray:none;stroke-opacity:1"
           id="g79445"
           transform="matrix(0.670493,0,0,0.670493,125.752,-133.7464)">
          <path
             id="path79447"
             style="color:#000000;fill:#5ab532;fill-opacity:1;fill-rule:nonzero;stroke:#000000;stroke-width:8.52807236;stroke-linecap:butt;stroke-linejoin:miter;marker:none;marker-start:none;marker-mid:none;marker-end:none;stroke-miterlimit:4;stroke-dasharray:none;stroke-dashoffset:0;stroke-opacity:1;visibility:visible;display:inline;overflow:visible"
             transform="matrix(0.784508,-0.62012,0.62012,0.784508,-366.9358,157.1982)"
             d="M 69.082687,350.17303 C 69.086492,390.5904 51.382381,423.35889 29.541939,423.35889 C 7.7014958,423.35889 -10.002615,390.5904 -9.9988098,350.17303 C -10.002615,309.75566 7.7014958,276.98717 29.541939,276.98717 C 51.382381,276.98717 69.086492,309.75566 69.082687,350.17303 z " />
          <path
             id="path79449"
             style="fill:#5ab532;fill-opacity:1;fill-rule:evenodd;stroke:#000000;stroke-width:8.52807903;stroke-linecap:butt;stroke-linejoin:miter;stroke-miterlimit:4;stroke-dasharray:none;stroke-opacity:1"
             d="M -98.44245,243.14474 L -98.7237,243.45724 C -95.152431,249.61338 -99.430813,262.90177 -109.31745,275.01974 C -120.31949,288.50485 -134.14868,295.47694 -140.19245,290.61349 C -81.273347,356.11209 -23.49007,421.88921 30.6513,488.58224 C 53.76545,512.14696 67.14433,517.15111 76.99505,515.39474 C 109.44643,507.37781 109.44885,474.18714 99.2763,461.30099 C 35.25083,397.78845 28.8805,417.86261 -98.44245,243.14474 z " />
          <path
             id="path79451"
             style="color:#000000;fill:#5ab532;fill-opacity:1;fill-rule:nonzero;stroke:#000000;stroke-width:8.52807903;stroke-linecap:butt;stroke-linejoin:miter;marker:none;marker-start:none;marker-mid:none;marker-end:none;stroke-miterlimit:4;stroke-dasharray:none;stroke-dashoffset:0;stroke-opacity:1;visibility:visible;display:inline;overflow:visible"
             d="M -39.0987,203.89474 C -45.10664,203.92182 -50.44294,205.54223 -54.7237,208.92599 C -58.64707,212.02725 -61.30789,216.35619 -62.81745,221.55099 C -69.69416,232.23406 -78.84914,244.73102 -88.94245,257.73849 C -88.25157,257.96415 -87.640148,258.2746 -87.06745,258.70724 C -80.958673,263.32207 -84.337486,278.25346 -94.62995,292.01974 C -104.92242,305.78601 -118.23992,313.19707 -124.3487,308.58224 C -125.639,307.60749 -126.50688,306.18088 -126.9737,304.39474 C -151.60033,333.50089 -172.51593,356.6046 -171.9737,356.17599 C -154.85064,342.64095 -120.64631,357.39474 -95.5987,389.08224 C -77.9871,411.36251 -69.58659,436.1087 -72.0987,453.55099 C -43.56441,401.54975 -12.13094,355.8344 33.5263,325.42599 C 34.20462,325.02814 36.15917,323.6727 36.49505,323.45724 L 36.43255,323.39474 C 53.03482,309.59694 46.52573,273.26112 21.68255,241.83224 C 2.89684,218.06662 -21.07489,203.81349 -39.0987,203.89474 z " />
          <path
             id="path79453"
             style="fill:#5ab532;fill-opacity:1;fill-rule:evenodd;stroke:#000000;stroke-width:8.52807903;stroke-linecap:butt;stroke-linejoin:miter;stroke-miterlimit:4;stroke-dasharray:none;stroke-opacity:1"
             d="M -98.1612,244.76974 C -95.767291,251.35884 -100.07324,263.68918 -109.31745,275.01974 C -120.31949,288.50485 -134.14868,295.47694 -140.19245,290.61349 C -135.91436,295.37282 -131.64711,300.13311 -127.37995,304.89474 C -127.23778,304.72682 -126.61304,305.49245 -126.37995,305.98849 C -125.47457,306.9991 -124.56593,308.00897 -123.6612,309.01974 C -117.28725,312.65079 -104.55575,305.29559 -94.62995,292.01974 C -85.999923,280.47699 -82.240138,268.11989 -84.8487,261.70724 C -85.590622,260.70219 -86.285286,259.75804 -87.0362,258.73849 C -87.048013,258.72943 -88.55212,257.21997 -88.3487,256.95724 C -91.38376,252.83117 -94.912448,249.06194 -98.1612,244.76974 z " />
          <path
             id="path79455"
             style="color:#000000;fill:#5ab532;fill-opacity:1;fill-rule:nonzero;stroke:#000000;stroke-width:8.52808094;stroke-linecap:butt;stroke-linejoin:miter;marker:none;marker-start:none;marker-mid:none;marker-end:none;stroke-miterlimit:4;stroke-dasharray:none;stroke-dashoffset:0;stroke-opacity:1;visibility:visible;display:inline;overflow:visible"
             transform="matrix(0.774836,0.632162,-0.632162,0.774836,-34.1139,77.13798)"
             d="M 66.810229,200.87263 C 66.810229,218.31773 60.502265,232.45978 52.720996,232.45978 C 44.939728,232.45978 38.631764,218.31773 38.631764,200.87263 C 38.631764,183.42753 44.939728,169.28548 52.720997,169.28548 C 60.502265,169.28548 66.810229,183.42753 66.810229,200.87263 L 66.810229,200.87263 z " />
          <path
             id="path79457"
             style="fill:#5ab532;fill-opacity:1;fill-rule:evenodd;stroke:#000000;stroke-width:8.52807903;stroke-linecap:butt;stroke-linejoin:miter;stroke-miterlimit:4;stroke-dasharray:none;stroke-opacity:1"
             d="M -106.81416,358.0702 C -62.38074,325.9104 -37.7574,283.84556 -18.50741,239.09404" />
          <path
             id="path79459"
             style="fill:#5ab532;fill-opacity:1;fill-rule:evenodd;stroke:#000000;stroke-width:8.52807903;stroke-linecap:butt;stroke-linejoin:miter;stroke-miterlimit:4;stroke-dasharray:none;stroke-opacity:1"
             d="M -37.01481,395.085 C 49.632,497.1589 54.64948,507.05649 83.01891,507.18698" />
        </g>
      </g>
      <g
         style="fill:#5ab532;fill-opacity:1;stroke:#000000;stroke-width:5.71801758;stroke-miterlimit:4;stroke-dasharray:none;stroke-opacity:1"
         transform="matrix(0.3595251,0.3821087,-0.3821087,0.3595251,300.83631,-12.766357)"
         id="g79425">
        <g
           style="fill:#5ab532;fill-opacity:1;stroke:#000000;stroke-width:8.52807903;stroke-miterlimit:4;stroke-dasharray:none;stroke-opacity:1"
           transform="matrix(0.670493,0,0,0.670493,125.752,-133.7464)"
           id="g79427">
          <path
             d="M 69.082687,350.17303 C 69.086492,390.5904 51.382381,423.35889 29.541939,423.35889 C 7.7014958,423.35889 -10.002615,390.5904 -9.9988098,350.17303 C -10.002615,309.75566 7.7014958,276.98717 29.541939,276.98717 C 51.382381,276.98717 69.086492,309.75566 69.082687,350.17303 z "
             transform="matrix(0.784508,-0.62012,0.62012,0.784508,-366.9358,157.1982)"
             style="color:#000000;fill:#5ab532;fill-opacity:1;fill-rule:nonzero;stroke:#000000;stroke-width:8.52807236;stroke-linecap:butt;stroke-linejoin:miter;marker:none;marker-start:none;marker-mid:none;marker-end:none;stroke-miterlimit:4;stroke-dasharray:none;stroke-dashoffset:0;stroke-opacity:1;visibility:visible;display:inline;overflow:visible"
             id="path79429" />
          <path
             d="M -98.44245,243.14474 L -98.7237,243.45724 C -95.152431,249.61338 -99.430813,262.90177 -109.31745,275.01974 C -120.31949,288.50485 -134.14868,295.47694 -140.19245,290.61349 C -81.273347,356.11209 -23.49007,421.88921 30.6513,488.58224 C 53.76545,512.14696 67.14433,517.15111 76.99505,515.39474 C 109.44643,507.37781 109.44885,474.18714 99.2763,461.30099 C 35.25083,397.78845 28.8805,417.86261 -98.44245,243.14474 z "
             style="fill:#5ab532;fill-opacity:1;fill-rule:evenodd;stroke:#000000;stroke-width:8.52807903;stroke-linecap:butt;stroke-linejoin:miter;stroke-miterlimit:4;stroke-dasharray:none;stroke-opacity:1"
             id="path79431" />
          <path
             d="M -39.0987,203.89474 C -45.10664,203.92182 -50.44294,205.54223 -54.7237,208.92599 C -58.64707,212.02725 -61.30789,216.35619 -62.81745,221.55099 C -69.69416,232.23406 -78.84914,244.73102 -88.94245,257.73849 C -88.25157,257.96415 -87.640148,258.2746 -87.06745,258.70724 C -80.958673,263.32207 -84.337486,278.25346 -94.62995,292.01974 C -104.92242,305.78601 -118.23992,313.19707 -124.3487,308.58224 C -125.639,307.60749 -126.50688,306.18088 -126.9737,304.39474 C -151.60033,333.50089 -172.51593,356.6046 -171.9737,356.17599 C -154.85064,342.64095 -120.64631,357.39474 -95.5987,389.08224 C -77.9871,411.36251 -69.58659,436.1087 -72.0987,453.55099 C -43.56441,401.54975 -12.13094,355.8344 33.5263,325.42599 C 34.20462,325.02814 36.15917,323.6727 36.49505,323.45724 L 36.43255,323.39474 C 53.03482,309.59694 46.52573,273.26112 21.68255,241.83224 C 2.89684,218.06662 -21.07489,203.81349 -39.0987,203.89474 z "
             style="color:#000000;fill:#5ab532;fill-opacity:1;fill-rule:nonzero;stroke:#000000;stroke-width:8.52807903;stroke-linecap:butt;stroke-linejoin:miter;marker:none;marker-start:none;marker-mid:none;marker-end:none;stroke-miterlimit:4;stroke-dasharray:none;stroke-dashoffset:0;stroke-opacity:1;visibility:visible;display:inline;overflow:visible"
             id="path79433" />
          <path
             d="M -98.1612,244.76974 C -95.767291,251.35884 -100.07324,263.68918 -109.31745,275.01974 C -120.31949,288.50485 -134.14868,295.47694 -140.19245,290.61349 C -135.91436,295.37282 -131.64711,300.13311 -127.37995,304.89474 C -127.23778,304.72682 -126.61304,305.49245 -126.37995,305.98849 C -125.47457,306.9991 -124.56593,308.00897 -123.6612,309.01974 C -117.28725,312.65079 -104.55575,305.29559 -94.62995,292.01974 C -85.999923,280.47699 -82.240138,268.11989 -84.8487,261.70724 C -85.590622,260.70219 -86.285286,259.75804 -87.0362,258.73849 C -87.048013,258.72943 -88.55212,257.21997 -88.3487,256.95724 C -91.38376,252.83117 -94.912448,249.06194 -98.1612,244.76974 z "
             style="fill:#5ab532;fill-opacity:1;fill-rule:evenodd;stroke:#000000;stroke-width:8.52807903;stroke-linecap:butt;stroke-linejoin:miter;stroke-miterlimit:4;stroke-dasharray:none;stroke-opacity:1"
             id="path79435" />
          <path
             d="M 66.810229,200.87263 C 66.810229,218.31773 60.502265,232.45978 52.720996,232.45978 C 44.939728,232.45978 38.631764,218.31773 38.631764,200.87263 C 38.631764,183.42753 44.939728,169.28548 52.720997,169.28548 C 60.502265,169.28548 66.810229,183.42753 66.810229,200.87263 L 66.810229,200.87263 z "
             transform="matrix(0.774836,0.632162,-0.632162,0.774836,-34.1139,77.13798)"
             style="color:#000000;fill:#5ab532;fill-opacity:1;fill-rule:nonzero;stroke:#000000;stroke-width:8.52808094;stroke-linecap:butt;stroke-linejoin:miter;marker:none;marker-start:none;marker-mid:none;marker-end:none;stroke-miterlimit:4;stroke-dasharray:none;stroke-dashoffset:0;stroke-opacity:1;visibility:visible;display:inline;overflow:visible"
             id="path79437" />
          <path
             d="M -106.81416,358.0702 C -62.38074,325.9104 -37.7574,283.84556 -18.50741,239.09404"
             style="fill:#5ab532;fill-opacity:1;fill-rule:evenodd;stroke:#000000;stroke-width:8.52807903;stroke-linecap:butt;stroke-linejoin:miter;stroke-miterlimit:4;stroke-dasharray:none;stroke-opacity:1"
             id="path79439" />
          <path
             d="M -37.01481,395.085 C 49.632,497.1589 54.64948,507.05649 83.01891,507.18698"
             style="fill:#5ab532;fill-opacity:1;fill-rule:evenodd;stroke:#000000;stroke-width:8.52807903;stroke-linecap:butt;stroke-linejoin:miter;stroke-miterlimit:4;stroke-dasharray:none;stroke-opacity:1"
             id="path79441" />
        </g>
      </g>
    </g>
    <g
       id="g82416"
       transform="translate(-0.5521249,0)"
       style="stroke:#000000;stroke-opacity:1;stroke-width:3;stroke-miterlimit:4;stroke-dasharray:none">
      <g
         transform="matrix(0,0.56077,-0.56077,0,724.80473,567.75223)"
         style="fill:#e20909;fill-opacity:1;stroke:#000000;stroke-opacity:1;stroke-width:5.3497869;stroke-miterlimit:4;stroke-dasharray:none"
         id="g81436">
        <path
           sodipodi:nodetypes="ccccccccc"
           id="rect81433"
           d="M -561.35982,442.25146 L -330.7143,442.47371 C -319.70978,442.47371 -310.85055,446.91533 -310.85055,452.43248 L -310.85055,466.07441 C -310.85055,471.59157 -319.70978,476.03318 -330.7143,476.03318 L -561.35982,475.81093 C -572.36434,475.81093 -581.22357,471.36932 -581.22357,465.85216 L -581.22357,452.21023 C -581.22357,446.69308 -572.36434,442.25146 -561.35982,442.25146 z "
           style="stroke:#000000;stroke-width:5.34978775;stroke-miterlimit:4;stroke-opacity:1;stroke-dasharray:none"
           transform="matrix(0.999976,6.9238189e-3,-7.6229756e-3,0.9999709,0,0)" />
        <path
           style="fill:#e20909;fill-opacity:1;stroke:#000000;stroke-width:5.3497869;stroke-miterlimit:4;stroke-opacity:1;stroke-dasharray:none"
           d="M -518.66893,268.24807 C -598.89235,268.50089 -663.79601,333.81492 -663.54321,414.03836 C -608.92932,377.02865 -569.24795,378.98183 -529.34462,405.58782 C -528.11422,430.17103 -547.10562,430.71188 -545.32169,447.50304 L -545.32169,471.42888 C -545.49622,493.00074 -498.35876,497.79649 -492.39379,471.42888 L -492.39379,447.50304 C -490.11109,429.46444 -507.402,430.77407 -508.44609,405.58782 C -462.83642,378.32132 -414.7136,379.27821 -372.87866,413.12237 C -373.13116,332.99349 -438.2707,268.14329 -518.39991,268.24747"
           id="path81430"
           sodipodi:nodetypes="cccccccccs" />
      </g>
      <g
         id="g82410"
         style="fill:#e20909;fill-opacity:1;stroke:#000000;stroke-opacity:1;stroke-width:5.3497869;stroke-miterlimit:4;stroke-dasharray:none"
         transform="matrix(0,0.56077,0.56077,0,-123.70049,567.75223)">
        <path
           transform="matrix(0.999976,6.9238189e-3,-7.6229756e-3,0.9999709,0,0)"
           style="stroke:#000000;stroke-width:5.34978775;stroke-miterlimit:4;stroke-opacity:1;stroke-dasharray:none"
           d="M -561.35982,442.25146 L -330.7143,442.47371 C -319.70978,442.47371 -310.85055,446.91533 -310.85055,452.43248 L -310.85055,466.07441 C -310.85055,471.59157 -319.70978,476.03318 -330.7143,476.03318 L -561.35982,475.81093 C -572.36434,475.81093 -581.22357,471.36932 -581.22357,465.85216 L -581.22357,452.21023 C -581.22357,446.69308 -572.36434,442.25146 -561.35982,442.25146 z "
           id="path82412"
           sodipodi:nodetypes="ccccccccc" />
        <path
           sodipodi:nodetypes="cccccccccs"
           id="path82414"
           d="M -518.66893,268.24807 C -598.89235,268.50089 -663.79601,333.81492 -663.54321,414.03836 C -608.92932,377.02865 -569.24795,378.98183 -529.34462,405.58782 C -528.11422,430.17103 -547.10562,430.71188 -545.32169,447.50304 L -545.32169,471.42888 C -545.49622,493.00074 -498.35876,497.79649 -492.39379,471.42888 L -492.39379,447.50304 C -490.11109,429.46444 -507.402,430.77407 -508.44609,405.58782 C -462.83642,378.32132 -414.7136,379.27821 -372.87866,413.12237 C -373.13116,332.99349 -438.2707,268.14329 -518.39991,268.24747"
           style="fill:#e20909;fill-opacity:1;stroke:#000000;stroke-width:5.3497869;stroke-miterlimit:4;stroke-opacity:1;stroke-dasharray:none" />
      </g>
    </g>
  </g>
  <g
     inkscape:groupmode="layer"
     id="layer4"
     inkscape:label="Meubles"
     transform="translate(2.3841858e-7,1.2525328e-6)">
    <g
       id="g68204"
       transform="translate(205.88327,-95.772122)"
       style="stroke:#000000;stroke-width:3;stroke-miterlimit:4;stroke-dasharray:none;stroke-opacity:1">
      <path
         id="path63353"
         style="fill:#fcef3c;fill-opacity:1;fill-rule:evenodd;stroke:#000000;stroke-width:3;stroke-linecap:butt;stroke-linejoin:miter;stroke-miterlimit:4;stroke-dasharray:none;stroke-opacity:1;display:inline"
         d="M 94.11672,660.5 C 94.11672,660.5 186.73345,625.64995 186.73345,537.08182 C 186.73345,448.51369 186.73345,456.86 186.73345,456.86 L 1.4999902,456.86 L 1.4999902,537.08182 C 1.4999902,625.64995 94.11672,660.5 94.11672,660.5 z "
         sodipodi:nodetypes="cccccc" />
      <path
         sodipodi:nodetypes="ccccc"
         d="M 94.11672,660.5 C 94.11672,660.5 186.73345,625.64995 186.73345,537.08182 C 186.73345,448.51369 186.73346,456.86 186.73346,456.86 L 94.116722,456.86 L 94.11672,660.5 z "
         style="fill:#2b5df2;fill-opacity:1;fill-rule:evenodd;stroke:#000000;stroke-width:3;stroke-linecap:butt;stroke-linejoin:miter;stroke-miterlimit:4;stroke-dasharray:none;stroke-opacity:1;display:inline"
         id="path64324" />
      <g
         transform="matrix(4.9123324e-2,0,0,4.9123324e-2,-622.90535,504.08853)"
         style="fill:#fcef3c;fill-opacity:1;stroke:#000000;stroke-width:61.07078552;stroke-miterlimit:4;stroke-dasharray:none;stroke-opacity:1"
         id="g9818">
        <path
           style="fill:#e20909;fill-opacity:1;stroke:#000000;stroke-width:61.07078552;stroke-miterlimit:4;stroke-dasharray:none;stroke-opacity:1"
           d="M 14375.267,2160.5626 C 14375.267,2282.6726 14276.267,2381.6626 14154.157,2381.6626 C 14199.767,2460.6626 14284.047,2509.3226 14375.257,2509.3226 C 14466.477,2509.3226 14550.757,2460.6626 14596.367,2381.6626 C 14641.977,2460.6626 14726.257,2509.3226 14817.467,2509.3226 C 14908.687,2509.3226 14992.967,2460.6626 15038.577,2381.6626 C 14916.467,2381.6626 14817.467,2282.6726 14817.467,2160.5626 L 14817.467,1181.6626 L 15796.367,1181.6626 C 15918.477,1181.6626 16017.467,1280.6626 16017.467,1402.7726 C 16096.467,1357.1626 16145.127,1272.8826 16145.127,1181.6726 C 16145.127,1090.4526 16096.467,1006.1726 16017.467,960.56262 C 16096.467,914.95262 16145.127,830.67262 16145.127,739.46262 C 16145.127,648.24262 16096.467,563.96262 16017.467,518.35262 C 16017.467,640.46262 15918.477,739.46262 15796.367,739.46262 L 14817.467,739.46262 L 14817.467,-239.43738 C 14817.467,-361.55038 14916.467,-460.54238 15038.577,-460.54238 C 14992.967,-539.53538 14908.687,-588.19738 14817.467,-588.19738 C 14726.257,-588.19738 14641.977,-539.53538 14596.367,-460.54238 C 14550.757,-539.53538 14466.477,-588.19738 14375.257,-588.19738 C 14284.047,-588.19738 14199.767,-539.53538 14154.157,-460.54238 C 14276.267,-460.54238 14375.267,-361.55038 14375.267,-239.43738 L 14375.267,739.46262 L 13396.367,739.46262 C 13274.254,739.46262 13175.262,640.46262 13175.262,518.35262 C 13096.269,563.96262 13047.607,648.24262 13047.607,739.46262 C 13047.607,830.67262 13096.269,914.95262 13175.262,960.56262 C 13096.269,1006.1726 13047.607,1090.4526 13047.607,1181.6726 C 13047.607,1272.8826 13096.269,1357.1626 13175.262,1402.7726 C 13175.262,1280.6626 13274.254,1181.6626 13396.367,1181.6626 L 14375.267,1181.6626 L 14375.267,2160.5626 z "
           id="path9820" />
      </g>
    </g>
  </g>
  <g
     inkscape:groupmode="layer"
     id="layer2"
     inkscape:label="Reflet final"
     style="display:inline"
     transform="translate(2.3841858e-7,1.2525328e-6)"
     sodipodi:insensitive="true">
    <path
       sodipodi:nodetypes="cccccc"
       d="M 300,658.5 C 300,658.5 598.5,546.17969 598.5,260.72817 C 598.5,-24.723334 598.5,2.1764865 598.5,2.1764865 L 1.49999,2.1764865 L 1.49999,260.72817 C 1.49999,546.17969 300,658.5 300,658.5 z "
       style="opacity:1;fill:url(#radialGradient3163);fill-opacity:1;fill-rule:evenodd;stroke:none;stroke-width:1px;stroke-linecap:butt;stroke-linejoin:miter;stroke-opacity:1"
       id="path2875"
       inkscape:export-xdpi="144"
       inkscape:export-ydpi="144" />
  </g>
  <g
     inkscape:groupmode="layer"
     id="layer1"
     inkscape:label="Contour final"
     transform="translate(2.3841858e-7,1.2525328e-6)"
     sodipodi:insensitive="true">
    <path
       sodipodi:nodetypes="cccccc"
       d="M 299.99999,658.50028 C 299.99999,658.50028 1.5,546.17992 1.5,260.72828 C 1.5,-24.723336 1.5,2.1764957 1.5,2.1764957 L 598.49999,2.1764957 L 598.49999,260.72828 C 598.49999,546.17992 299.99999,658.50028 299.99999,658.50028 z "
       style="opacity:1;fill:none;fill-opacity:1;fill-rule:evenodd;stroke:#000000;stroke-width:3.00000048;stroke-linecap:butt;stroke-linejoin:miter;stroke-miterlimit:4;stroke-dasharray:none;stroke-opacity:1"
       id="path1411"
       inkscape:export-xdpi="144"
       inkscape:export-ydpi="144" />
  </g>
</svg>
